<svg width="122" height="27" viewBox="0 0 122 27" fill="none" xmlns="http://www.w3.org/2000/svg">
<path d="M16.4198 17.26C16.4198 18.7907 15.8598 20.1067 14.7398 21.208C13.6198 22.2907 12.0052 22.9627 9.89584 23.224V26.36H7.09584V23.308C5.71451 23.2333 4.39851 22.9907 3.14784 22.58C1.89718 22.1693 0.889177 21.6653 0.123844 21.068L1.66384 17.652C2.37318 18.1747 3.20384 18.6133 4.15584 18.968C5.10784 19.3227 6.08784 19.5467 7.09584 19.64V14.964C5.77051 14.6467 4.65051 14.292 3.73584 13.9C2.82118 13.508 2.05584 12.9387 1.43984 12.192C0.823844 11.4267 0.515844 10.4187 0.515844 9.168C0.515844 7.61867 1.07584 6.29333 2.19584 5.192C3.33451 4.072 4.96784 3.39067 7.09584 3.148V0.0399985H9.89584V3.092C12.1918 3.27867 14.0865 3.848 15.5798 4.8L14.1798 8.244C12.7798 7.44133 11.3518 6.956 9.89584 6.788V11.548C11.2025 11.8467 12.3038 12.192 13.1998 12.584C14.1145 12.9573 14.8798 13.5267 15.4958 14.292C16.1118 15.0387 16.4198 16.028 16.4198 17.26ZM5.02384 8.944C5.02384 9.41067 5.20118 9.79333 5.55584 10.092C5.91051 10.3907 6.42384 10.6427 7.09584 10.848V6.872C6.38651 7.04 5.86384 7.31067 5.52784 7.684C5.19184 8.03867 5.02384 8.45867 5.02384 8.944ZM9.89584 19.528C10.5678 19.3787 11.0718 19.136 11.4078 18.8C11.7438 18.464 11.9118 18.0627 11.9118 17.596C11.9118 17.1293 11.7345 16.7467 11.3798 16.448C11.0438 16.1493 10.5492 15.888 9.89584 15.664V19.528ZM25.5739 3.4V23H21.0379V7.04H17.1179V3.4H25.5739ZM37.3787 23.336C35.7547 23.336 34.3081 22.9347 33.0387 22.132C31.7694 21.3293 30.7707 20.172 30.0427 18.66C29.3334 17.1293 28.9787 15.3093 28.9787 13.2C28.9787 11.0907 29.3334 9.28 30.0427 7.768C30.7707 6.23733 31.7694 5.07067 33.0387 4.268C34.3081 3.46533 35.7547 3.064 37.3787 3.064C39.0027 3.064 40.4494 3.46533 41.7187 4.268C42.9881 5.07067 43.9774 6.23733 44.6867 7.768C45.4147 9.28 45.7787 11.0907 45.7787 13.2C45.7787 15.3093 45.4147 17.1293 44.6867 18.66C43.9774 20.172 42.9881 21.3293 41.7187 22.132C40.4494 22.9347 39.0027 23.336 37.3787 23.336ZM37.3787 19.5C38.5734 19.5 39.5067 18.9867 40.1787 17.96C40.8694 16.9333 41.2147 15.3467 41.2147 13.2C41.2147 11.0533 40.8694 9.46667 40.1787 8.44C39.5067 7.41333 38.5734 6.9 37.3787 6.9C36.2027 6.9 35.2694 7.41333 34.5787 8.44C33.9067 9.46667 33.5707 11.0533 33.5707 13.2C33.5707 15.3467 33.9067 16.9333 34.5787 17.96C35.2694 18.9867 36.2027 19.5 37.3787 19.5ZM57.4186 10.708C58.6693 10.708 59.808 10.96 60.8346 11.464C61.8613 11.968 62.6733 12.6867 63.2706 13.62C63.868 14.5347 64.1666 15.5987 64.1666 16.812C64.1666 18.1187 63.84 19.2667 63.1866 20.256C62.5333 21.2453 61.6373 22.0107 60.4986 22.552C59.3786 23.0747 58.128 23.336 56.7466 23.336C54.0026 23.336 51.856 22.496 50.3066 20.816C48.7573 19.136 47.9826 16.7373 47.9826 13.62C47.9826 11.3987 48.4026 9.49467 49.2426 7.908C50.0826 6.32133 51.2493 5.11733 52.7426 4.296C54.2546 3.47467 56 3.064 57.9786 3.064C59.024 3.064 60.0226 3.18533 60.9746 3.428C61.9453 3.652 62.7666 3.97867 63.4386 4.408L61.7586 7.74C60.788 7.08667 59.5653 6.76 58.0906 6.76C56.4293 6.76 55.1133 7.24533 54.1426 8.216C53.172 9.18667 52.6493 10.596 52.5746 12.444C53.732 11.2867 55.3466 10.708 57.4186 10.708ZM56.4946 19.948C57.4653 19.948 58.2493 19.6867 58.8466 19.164C59.4626 18.6413 59.7706 17.932 59.7706 17.036C59.7706 16.14 59.4626 15.4307 58.8466 14.908C58.2493 14.3667 57.4466 14.096 56.4386 14.096C55.4493 14.096 54.6373 14.376 54.0026 14.936C53.368 15.4773 53.0506 16.1773 53.0506 17.036C53.0506 17.8947 53.3586 18.5947 53.9746 19.136C54.5906 19.6773 55.4306 19.948 56.4946 19.948ZM74.9668 11.38C76.6841 11.66 78.0001 12.304 78.9148 13.312C79.8294 14.3013 80.2868 15.5333 80.2868 17.008C80.2868 18.1467 79.9881 19.2013 79.3908 20.172C78.7934 21.124 77.8788 21.8893 76.6468 22.468C75.4334 23.0467 73.9401 23.336 72.1668 23.336C70.7854 23.336 69.4228 23.1587 68.0788 22.804C66.7534 22.4307 65.6241 21.908 64.6907 21.236L66.4548 17.764C67.2014 18.324 68.0601 18.7627 69.0308 19.08C70.0201 19.3787 71.0281 19.528 72.0548 19.528C73.1934 19.528 74.0894 19.3133 74.7428 18.884C75.3961 18.436 75.7228 17.8107 75.7228 17.008C75.7228 15.4027 74.5001 14.6 72.0548 14.6H69.9828V11.604L74.0148 7.04H65.6708V3.4H79.3908V6.34L74.9668 11.38ZM84.9571 23.224C84.1917 23.224 83.5477 22.9627 83.0251 22.44C82.5024 21.9173 82.2411 21.264 82.2411 20.48C82.2411 19.6773 82.5024 19.0333 83.0251 18.548C83.5477 18.044 84.1917 17.792 84.9571 17.792C85.7224 17.792 86.3664 18.044 86.8891 18.548C87.4117 19.0333 87.6731 19.6773 87.6731 20.48C87.6731 21.264 87.4117 21.9173 86.8891 22.44C86.3664 22.9627 85.7224 23.224 84.9571 23.224ZM98.7897 10.708C100.04 10.708 101.179 10.96 102.206 11.464C103.232 11.968 104.044 12.6867 104.642 13.62C105.239 14.5347 105.538 15.5987 105.538 16.812C105.538 18.1187 105.211 19.2667 104.558 20.256C103.904 21.2453 103.008 22.0107 101.87 22.552C100.75 23.0747 99.4991 23.336 98.1177 23.336C95.3737 23.336 93.2271 22.496 91.6777 20.816C90.1284 19.136 89.3537 16.7373 89.3537 13.62C89.3537 11.3987 89.7737 9.49467 90.6137 7.908C91.4537 6.32133 92.6204 5.11733 94.1137 4.296C95.6257 3.47467 97.3711 3.064 99.3497 3.064C100.395 3.064 101.394 3.18533 102.346 3.428C103.316 3.652 104.138 3.97867 104.81 4.408L103.13 7.74C102.159 7.08667 100.936 6.76 99.4617 6.76C97.8004 6.76 96.4844 7.24533 95.5137 8.216C94.5431 9.18667 94.0204 10.596 93.9457 12.444C95.1031 11.2867 96.7177 10.708 98.7897 10.708ZM97.8657 19.948C98.8364 19.948 99.6204 19.6867 100.218 19.164C100.834 18.6413 101.142 17.932 101.142 17.036C101.142 16.14 100.834 15.4307 100.218 14.908C99.6204 14.3667 98.8177 14.096 97.8097 14.096C96.8204 14.096 96.0084 14.376 95.3737 14.936C94.7391 15.4773 94.4217 16.1773 94.4217 17.036C94.4217 17.8947 94.7297 18.5947 95.3457 19.136C95.9617 19.6773 96.8017 19.948 97.8657 19.948ZM116.338 11.38C118.055 11.66 119.371 12.304 120.286 13.312C121.201 14.3013 121.658 15.5333 121.658 17.008C121.658 18.1467 121.359 19.2013 120.762 20.172C120.165 21.124 119.25 21.8893 118.018 22.468C116.805 23.0467 115.311 23.336 113.538 23.336C112.157 23.336 110.794 23.1587 109.45 22.804C108.125 22.4307 106.995 21.908 106.062 21.236L107.826 17.764C108.573 18.324 109.431 18.7627 110.402 19.08C111.391 19.3787 112.399 19.528 113.426 19.528C114.565 19.528 115.461 19.3133 116.114 18.884C116.767 18.436 117.094 17.8107 117.094 17.008C117.094 15.4027 115.871 14.6 113.426 14.6H111.354V11.604L115.386 7.04H107.042V3.4H120.762V6.34L116.338 11.38Z" fill="white"/>
</svg>
