<svg width="208" height="195" viewBox="0 0 208 195" fill="none" xmlns="http://www.w3.org/2000/svg">
<path d="M67.4274 -109.019C75.7544 -117.759 79.9179 -122.129 83.7544 -125.502C125.748 -162.417 188.161 -163.928 231.89 -129.086C235.886 -125.903 240.256 -121.74 248.995 -113.413L305.461 -59.6155C313.267 -52.1779 317.171 -48.4592 320.215 -45.0614C358.076 -2.80494 359.612 60.7013 323.84 104.74C320.964 108.281 317.245 112.184 309.807 119.99L264.213 167.846C219.833 214.427 141.928 197.863 120.339 137.255C111.303 111.886 90.9487 92.1855 65.299 83.9807L63.4094 83.3763C-0.121937 63.0541 -20.4955 -16.7354 25.5154 -65.0284L67.4274 -109.019Z" fill="#40CEF2"/>
</svg>
