<svg width="238" height="284" viewBox="0 0 238 284" fill="none" xmlns="http://www.w3.org/2000/svg">
<path d="M97.278 -76.7139C126.44 -108.534 141.021 -124.444 157.018 -133.463C189.104 -151.554 227.896 -153.245 261.434 -138.015C278.156 -130.421 294.066 -115.84 325.886 -86.6784L362.953 -52.708C396.401 -22.0541 413.125 -6.72712 422.34 10.2496C439.291 41.4751 440.916 78.7671 426.747 111.349C419.043 129.063 403.716 145.787 373.063 179.235L307.816 250.429C256.567 306.35 164.525 289.726 136.076 219.411L134.951 216.632C123.712 188.852 100.272 167.822 71.4409 159.649C1.93685 139.948 -22.4587 53.9367 26.3515 0.677553L97.278 -76.7139Z" fill="#B52FF8"/>
</svg>
