<svg width="174" height="51" viewBox="0 0 174 51" fill="none" xmlns="http://www.w3.org/2000/svg">
<path d="M13.568 9.6H15.272V16.008C14.488 16.696 13.56 17.224 12.488 17.592C11.416 17.96 10.288 18.144 9.104 18.144C7.424 18.144 5.912 17.776 4.568 17.04C3.224 16.304 2.168 15.288 1.4 13.992C0.632 12.68 0.248 11.216 0.248 9.6C0.248 7.984 0.632 6.528 1.4 5.232C2.168 3.92 3.224 2.896 4.568 2.16C5.912 1.424 7.432 1.056 9.128 1.056C10.408 1.056 11.584 1.264 12.656 1.68C13.728 2.08 14.632 2.68 15.368 3.48L14.264 4.608C12.936 3.296 11.248 2.64 9.2 2.64C7.84 2.64 6.608 2.944 5.504 3.552C4.416 4.144 3.56 4.976 2.936 6.048C2.312 7.104 2 8.288 2 9.6C2 10.912 2.312 12.096 2.936 13.152C3.56 14.208 4.416 15.04 5.504 15.648C6.592 16.256 7.816 16.56 9.176 16.56C10.904 16.56 12.368 16.128 13.568 15.264V9.6ZM25.0985 18.12C23.8825 18.12 22.7865 17.848 21.8105 17.304C20.8345 16.744 20.0665 15.976 19.5065 15C18.9465 14.024 18.6665 12.92 18.6665 11.688C18.6665 10.456 18.9465 9.352 19.5065 8.376C20.0665 7.4 20.8345 6.64 21.8105 6.096C22.7865 5.552 23.8825 5.28 25.0985 5.28C26.3145 5.28 27.4105 5.552 28.3865 6.096C29.3625 6.64 30.1225 7.4 30.6665 8.376C31.2265 9.352 31.5065 10.456 31.5065 11.688C31.5065 12.92 31.2265 14.024 30.6665 15C30.1225 15.976 29.3625 16.744 28.3865 17.304C27.4105 17.848 26.3145 18.12 25.0985 18.12ZM25.0985 16.608C25.9945 16.608 26.7945 16.408 27.4985 16.008C28.2185 15.592 28.7785 15.008 29.1785 14.256C29.5785 13.504 29.7785 12.648 29.7785 11.688C29.7785 10.728 29.5785 9.872 29.1785 9.12C28.7785 8.368 28.2185 7.792 27.4985 7.392C26.7945 6.976 25.9945 6.768 25.0985 6.768C24.2025 6.768 23.3945 6.976 22.6745 7.392C21.9705 7.792 21.4105 8.368 20.9945 9.12C20.5945 9.872 20.3945 10.728 20.3945 11.688C20.3945 12.648 20.5945 13.504 20.9945 14.256C21.4105 15.008 21.9705 15.592 22.6745 16.008C23.3945 16.408 24.2025 16.608 25.0985 16.608ZM40.1454 18.12C38.9294 18.12 37.8334 17.848 36.8574 17.304C35.8814 16.744 35.1134 15.976 34.5534 15C33.9934 14.024 33.7134 12.92 33.7134 11.688C33.7134 10.456 33.9934 9.352 34.5534 8.376C35.1134 7.4 35.8814 6.64 36.8574 6.096C37.8334 5.552 38.9294 5.28 40.1454 5.28C41.3614 5.28 42.4574 5.552 43.4334 6.096C44.4094 6.64 45.1694 7.4 45.7134 8.376C46.2734 9.352 46.5534 10.456 46.5534 11.688C46.5534 12.92 46.2734 14.024 45.7134 15C45.1694 15.976 44.4094 16.744 43.4334 17.304C42.4574 17.848 41.3614 18.12 40.1454 18.12ZM40.1454 16.608C41.0414 16.608 41.8414 16.408 42.5454 16.008C43.2654 15.592 43.8254 15.008 44.2254 14.256C44.6254 13.504 44.8254 12.648 44.8254 11.688C44.8254 10.728 44.6254 9.872 44.2254 9.12C43.8254 8.368 43.2654 7.792 42.5454 7.392C41.8414 6.976 41.0414 6.768 40.1454 6.768C39.2494 6.768 38.4414 6.976 37.7214 7.392C37.0174 7.792 36.4574 8.368 36.0414 9.12C35.6414 9.872 35.4414 10.728 35.4414 11.688C35.4414 12.648 35.6414 13.504 36.0414 14.256C36.4574 15.008 37.0174 15.592 37.7214 16.008C38.4414 16.408 39.2494 16.608 40.1454 16.608ZM61.5523 0.191999V18H59.9203V15.504C59.4083 16.352 58.7283 17 57.8803 17.448C57.0483 17.896 56.1043 18.12 55.0483 18.12C53.8643 18.12 52.7923 17.848 51.8323 17.304C50.8723 16.76 50.1203 16 49.5763 15.024C49.0323 14.048 48.7603 12.936 48.7603 11.688C48.7603 10.44 49.0323 9.328 49.5763 8.352C50.1203 7.376 50.8723 6.624 51.8323 6.096C52.7923 5.552 53.8643 5.28 55.0483 5.28C56.0723 5.28 56.9923 5.496 57.8083 5.928C58.6403 6.344 59.3203 6.96 59.8483 7.776V0.191999H61.5523ZM55.1923 16.608C56.0723 16.608 56.8643 16.408 57.5683 16.008C58.2883 15.592 58.8483 15.008 59.2483 14.256C59.6643 13.504 59.8723 12.648 59.8723 11.688C59.8723 10.728 59.6643 9.872 59.2483 9.12C58.8483 8.368 58.2883 7.792 57.5683 7.392C56.8643 6.976 56.0723 6.768 55.1923 6.768C54.2963 6.768 53.4883 6.976 52.7683 7.392C52.0643 7.792 51.5043 8.368 51.0883 9.12C50.6883 9.872 50.4883 10.728 50.4883 11.688C50.4883 12.648 50.6883 13.504 51.0883 14.256C51.5043 15.008 52.0643 15.592 52.7683 16.008C53.4883 16.408 54.2963 16.608 55.1923 16.608ZM88.3231 5.28C89.9071 5.28 91.1471 5.736 92.0431 6.648C92.9551 7.56 93.4111 8.904 93.4111 10.68V18H91.7071V10.848C91.7071 9.536 91.3871 8.536 90.7471 7.848C90.1231 7.16 89.2351 6.816 88.0831 6.816C86.7711 6.816 85.7391 7.224 84.9871 8.04C84.2351 8.84 83.8591 9.952 83.8591 11.376V18H82.1551V10.848C82.1551 9.536 81.8351 8.536 81.1951 7.848C80.5711 7.16 79.6751 6.816 78.5071 6.816C77.2111 6.816 76.1791 7.224 75.4111 8.04C74.6591 8.84 74.2831 9.952 74.2831 11.376V18H72.5791V5.376H74.2111V7.68C74.6591 6.912 75.2831 6.32 76.0831 5.904C76.8831 5.488 77.8031 5.28 78.8431 5.28C79.8991 5.28 80.8111 5.504 81.5791 5.952C82.3631 6.4 82.9471 7.064 83.3311 7.944C83.7951 7.112 84.4591 6.464 85.3231 6C86.2031 5.52 87.2031 5.28 88.3231 5.28ZM103.239 18.12C102.023 18.12 100.927 17.848 99.9511 17.304C98.9751 16.744 98.2071 15.976 97.6471 15C97.0871 14.024 96.8071 12.92 96.8071 11.688C96.8071 10.456 97.0871 9.352 97.6471 8.376C98.2071 7.4 98.9751 6.64 99.9511 6.096C100.927 5.552 102.023 5.28 103.239 5.28C104.455 5.28 105.551 5.552 106.527 6.096C107.503 6.64 108.263 7.4 108.807 8.376C109.367 9.352 109.647 10.456 109.647 11.688C109.647 12.92 109.367 14.024 108.807 15C108.263 15.976 107.503 16.744 106.527 17.304C105.551 17.848 104.455 18.12 103.239 18.12ZM103.239 16.608C104.135 16.608 104.935 16.408 105.639 16.008C106.359 15.592 106.919 15.008 107.319 14.256C107.719 13.504 107.919 12.648 107.919 11.688C107.919 10.728 107.719 9.872 107.319 9.12C106.919 8.368 106.359 7.792 105.639 7.392C104.935 6.976 104.135 6.768 103.239 6.768C102.343 6.768 101.535 6.976 100.815 7.392C100.111 7.792 99.5511 8.368 99.1351 9.12C98.7351 9.872 98.5351 10.728 98.5351 11.688C98.5351 12.648 98.7351 13.504 99.1351 14.256C99.5511 15.008 100.111 15.592 100.815 16.008C101.535 16.408 102.343 16.608 103.239 16.608ZM114.758 7.848C115.158 7 115.75 6.36 116.534 5.928C117.334 5.496 118.318 5.28 119.486 5.28V6.936L119.078 6.912C117.75 6.912 116.71 7.32 115.958 8.136C115.206 8.952 114.83 10.096 114.83 11.568V18H113.126V5.376H114.758V7.848ZM129.003 5.28C130.587 5.28 131.843 5.744 132.771 6.672C133.715 7.584 134.187 8.92 134.187 10.68V18H132.483V10.848C132.483 9.536 132.155 8.536 131.499 7.848C130.843 7.16 129.907 6.816 128.691 6.816C127.331 6.816 126.251 7.224 125.451 8.04C124.667 8.84 124.275 9.952 124.275 11.376V18H122.571V5.376H124.203V7.704C124.667 6.936 125.307 6.344 126.123 5.928C126.955 5.496 127.915 5.28 129.003 5.28ZM138.814 5.376H140.518V18H138.814V5.376ZM139.678 2.616C139.326 2.616 139.03 2.496 138.79 2.256C138.55 2.016 138.43 1.728 138.43 1.392C138.43 1.072 138.55 0.791999 138.79 0.551999C139.03 0.311999 139.326 0.191999 139.678 0.191999C140.03 0.191999 140.326 0.311999 140.566 0.551999C140.806 0.775999 140.926 1.048 140.926 1.368C140.926 1.72 140.806 2.016 140.566 2.256C140.326 2.496 140.03 2.616 139.678 2.616ZM151.691 5.28C153.275 5.28 154.531 5.744 155.459 6.672C156.403 7.584 156.875 8.92 156.875 10.68V18H155.171V10.848C155.171 9.536 154.843 8.536 154.187 7.848C153.531 7.16 152.595 6.816 151.379 6.816C150.019 6.816 148.939 7.224 148.139 8.04C147.355 8.84 146.963 9.952 146.963 11.376V18H145.259V5.376H146.891V7.704C147.355 6.936 147.995 6.344 148.811 5.928C149.643 5.496 150.603 5.28 151.691 5.28ZM173.236 5.376V16.464C173.236 18.608 172.708 20.192 171.652 21.216C170.612 22.256 169.036 22.776 166.924 22.776C165.756 22.776 164.644 22.6 163.588 22.248C162.548 21.912 161.7 21.44 161.044 20.832L161.908 19.536C162.516 20.08 163.252 20.504 164.116 20.808C164.996 21.112 165.916 21.264 166.876 21.264C168.476 21.264 169.652 20.888 170.404 20.136C171.156 19.4 171.532 18.248 171.532 16.68V15.072C171.004 15.872 170.308 16.48 169.444 16.896C168.596 17.312 167.652 17.52 166.612 17.52C165.428 17.52 164.348 17.264 163.372 16.752C162.412 16.224 161.652 15.496 161.092 14.568C160.548 13.624 160.276 12.56 160.276 11.376C160.276 10.192 160.548 9.136 161.092 8.208C161.652 7.28 162.412 6.56 163.372 6.048C164.332 5.536 165.412 5.28 166.612 5.28C167.684 5.28 168.652 5.496 169.516 5.928C170.38 6.36 171.076 6.984 171.604 7.8V5.376H173.236ZM166.78 16.008C167.692 16.008 168.516 15.816 169.252 15.432C169.988 15.032 170.556 14.48 170.956 13.776C171.372 13.072 171.58 12.272 171.58 11.376C171.58 10.48 171.372 9.688 170.956 9C170.556 8.296 169.988 7.752 169.252 7.368C168.532 6.968 167.708 6.768 166.78 6.768C165.868 6.768 165.044 6.96 164.308 7.344C163.588 7.728 163.02 8.272 162.604 8.976C162.204 9.68 162.004 10.48 162.004 11.376C162.004 12.272 162.204 13.072 162.604 13.776C163.02 14.48 163.588 15.032 164.308 15.432C165.044 15.816 165.868 16.008 166.78 16.008ZM13.616 45.464V47H1.736V30.2H13.256V31.736H3.512V37.712H12.2V39.224H3.512V45.464H13.616ZM33.1747 34.28C34.7587 34.28 35.9987 34.736 36.8947 35.648C37.8067 36.56 38.2627 37.904 38.2627 39.68V47H36.5587V39.848C36.5587 38.536 36.2387 37.536 35.5987 36.848C34.9747 36.16 34.0867 35.816 32.9347 35.816C31.6227 35.816 30.5907 36.224 29.8387 37.04C29.0867 37.84 28.7107 38.952 28.7107 40.376V47H27.0067V39.848C27.0067 38.536 26.6867 37.536 26.0467 36.848C25.4227 36.16 24.5267 35.816 23.3587 35.816C22.0627 35.816 21.0307 36.224 20.2627 37.04C19.5107 37.84 19.1347 38.952 19.1347 40.376V47H17.4307V34.376H19.0627V36.68C19.5107 35.912 20.1347 35.32 20.9347 34.904C21.7347 34.488 22.6547 34.28 23.6947 34.28C24.7507 34.28 25.6627 34.504 26.4307 34.952C27.2147 35.4 27.7987 36.064 28.1827 36.944C28.6467 36.112 29.3107 35.464 30.1747 35C31.0547 34.52 32.0547 34.28 33.1747 34.28ZM58.6278 34.28C60.2118 34.28 61.4518 34.736 62.3478 35.648C63.2598 36.56 63.7158 37.904 63.7158 39.68V47H62.0118V39.848C62.0118 38.536 61.6918 37.536 61.0518 36.848C60.4278 36.16 59.5398 35.816 58.3878 35.816C57.0758 35.816 56.0438 36.224 55.2918 37.04C54.5398 37.84 54.1638 38.952 54.1638 40.376V47H52.4598V39.848C52.4598 38.536 52.1398 37.536 51.4998 36.848C50.8758 36.16 49.9798 35.816 48.8118 35.816C47.5158 35.816 46.4838 36.224 45.7158 37.04C44.9638 37.84 44.5878 38.952 44.5878 40.376V47H42.8838V34.376H44.5158V36.68C44.9638 35.912 45.5878 35.32 46.3878 34.904C47.1878 34.488 48.1078 34.28 49.1478 34.28C50.2038 34.28 51.1158 34.504 51.8838 34.952C52.6678 35.4 53.2518 36.064 53.6358 36.944C54.0998 36.112 54.7638 35.464 55.6278 35C56.5078 34.52 57.5078 34.28 58.6278 34.28ZM72.7529 34.28C74.4009 34.28 75.6649 34.696 76.5449 35.528C77.4249 36.344 77.8649 37.56 77.8649 39.176V47H76.2329V45.032C75.8489 45.688 75.2809 46.2 74.5289 46.568C73.7929 46.936 72.9129 47.12 71.8889 47.12C70.4809 47.12 69.3609 46.784 68.5289 46.112C67.6969 45.44 67.2809 44.552 67.2809 43.448C67.2809 42.376 67.6649 41.512 68.4329 40.856C69.2169 40.2 70.4569 39.872 72.1529 39.872H76.1609V39.104C76.1609 38.016 75.8569 37.192 75.2489 36.632C74.6409 36.056 73.7529 35.768 72.5849 35.768C71.7849 35.768 71.0169 35.904 70.2809 36.176C69.5449 36.432 68.9129 36.792 68.3849 37.256L67.6169 35.984C68.2569 35.44 69.0249 35.024 69.9209 34.736C70.8169 34.432 71.7609 34.28 72.7529 34.28ZM72.1529 45.776C73.1129 45.776 73.9369 45.56 74.6249 45.128C75.3129 44.68 75.8249 44.04 76.1609 43.208V41.144H72.2009C70.0409 41.144 68.9609 41.896 68.9609 43.4C68.9609 44.136 69.2409 44.72 69.8009 45.152C70.3609 45.568 71.1449 45.776 72.1529 45.776ZM82.6852 44.504C83.0532 44.504 83.3572 44.632 83.5972 44.888C83.8372 45.128 83.9572 45.432 83.9572 45.8C83.9572 45.992 83.9252 46.2 83.8612 46.424C83.8132 46.648 83.7332 46.904 83.6212 47.192L82.6132 50.504H81.4612L82.2772 47.024C82.0212 46.944 81.8132 46.8 81.6532 46.592C81.4932 46.368 81.4132 46.104 81.4132 45.8C81.4132 45.432 81.5332 45.128 81.7732 44.888C82.0132 44.632 82.3172 44.504 82.6852 44.504Z" fill="white"/>
</svg>
