<svg width="25" height="21" viewBox="0 0 25 21" fill="none" xmlns="http://www.w3.org/2000/svg">
<path d="M2.34961 6.75293H21.6504V5.93555C21.6504 4.125 20.7275 3.21094 18.8906 3.21094H5.10938C3.27246 3.21094 2.34961 4.125 2.34961 5.93555V6.75293ZM2.34961 15.2783C2.34961 17.0889 3.27246 17.9942 5.10938 17.9942H18.8906C20.7275 17.9942 21.6504 17.0889 21.6504 15.2783V8.74805H2.34961V15.2783ZM5.28516 13.1338V11.5078C5.28516 11.0156 5.62793 10.6641 6.14648 10.6641H8.2998C8.81836 10.6641 9.16113 11.0156 9.16113 11.5078V13.1338C9.16113 13.6348 8.81836 13.9776 8.2998 13.9776H6.14648C5.62793 13.9776 5.28516 13.6348 5.28516 13.1338Z" fill="#2B47FC"/>
</svg>
