<svg width="22" height="21" viewBox="0 0 22 21" fill="none" xmlns="http://www.w3.org/2000/svg">
<rect width="22" height="21" fill="#E5E5E5"/>
<g id="menu" clip-path="url(#clip0_0_1)">
<rect width="414" height="896" transform="translate(-40 -159)" fill="white"/>
<rect id="Rectangle 13" x="-40" y="-159" width="281" height="896" fill="white"/>
<path id="Rectangle 12" d="M-40 -19H216.85C225.392 -19 229.664 -19 232.915 -17.3112C235.654 -15.8881 237.888 -13.6543 239.311 -10.9146C241 -7.66354 241 -3.39236 241 5.15V16.85C241 25.3924 241 29.6635 239.311 32.9146C237.888 35.6543 235.654 37.8881 232.915 39.3112C229.664 41 225.392 41 216.85 41H-40V-19Z" fill="#F2F4F8"/>
<g id="Payments">
<g id="Group 5">
<g id="Payments 1">
<path id="Vector" d="M10.9649 19.6172C15.8604 19.6172 19.9296 15.5567 19.9296 10.6523C19.9296 5.75684 15.8516 1.6875 10.956 1.6875C6.05176 1.6875 2 5.75684 2 10.6523C2 15.5567 6.06055 19.6172 10.9649 19.6172ZM10.956 16.04C10.7011 16.04 10.4991 15.8554 10.4991 15.583V14.915C9.24219 14.7832 8.19629 14.0976 7.92383 13.0078C7.90625 12.9111 7.87988 12.8232 7.87988 12.7177C7.87988 12.3925 8.11719 12.1641 8.43359 12.1641C8.71484 12.1641 8.9082 12.3134 9.01367 12.6386C9.17188 13.2626 9.66406 13.7285 10.4991 13.8516V11.0742L10.4376 11.0567C8.87305 10.6788 8.06445 9.9668 8.06445 8.7627C8.06445 7.4795 9.0752 6.5918 10.4991 6.42481V5.78321C10.4991 5.51075 10.6924 5.32617 10.956 5.32617C11.2109 5.32617 11.413 5.51953 11.413 5.78321V6.42481C12.6171 6.56543 13.5751 7.26856 13.8212 8.28809C13.8476 8.38477 13.8653 8.48145 13.8653 8.57813C13.8653 8.90332 13.6368 9.13184 13.3116 9.13184C13.0127 9.13184 12.8281 8.95606 12.7315 8.66602C12.5469 8.03321 12.081 7.6377 11.413 7.51465V10.1425L11.5274 10.1601C13.1446 10.5468 13.9971 11.2324 13.9971 12.5068C13.9971 13.9394 12.872 14.7832 11.413 14.9239V15.583C11.413 15.8467 11.2109 16.04 10.956 16.04ZM10.4991 9.90528V7.51465C9.7168 7.65528 9.2334 8.13867 9.2334 8.70996C9.2334 9.25489 9.59375 9.65918 10.4288 9.8877L10.4991 9.90528ZM11.413 11.294V13.8516C12.371 13.7374 12.8281 13.2451 12.8281 12.5771C12.8281 11.9619 12.4853 11.628 11.5009 11.3292L11.413 11.294Z" fill="#2B47FC"/>
</g>
</g>
</g>
</g>
<defs>
<clipPath id="clip0_0_1">
<rect width="414" height="896" fill="white" transform="translate(-40 -159)"/>
</clipPath>
</defs>
</svg>
